<?xml version="1.0" standalone="no"?>
<!DOCTYPE svg PUBLIC "-//W3C//DTD SVG 20010904//EN"
 "http://www.w3.org/TR/2001/REC-SVG-20010904/DTD/svg10.dtd">
<svg version="1.0" xmlns="http://www.w3.org/2000/svg"
 width="250.000000pt" height="250.000000pt" viewBox="0 0 250.000000 250.000000"
 preserveAspectRatio="xMidYMid meet">
<metadata>
Created by potrace 1.14, written by Peter Selinger 2001-2017
</metadata>
<g transform="translate(0.000000,250.000000) scale(0.100000,-0.100000)"
fill="#000000" stroke="none">
<path d="M1613 2474 c-46 -28 -52 -38 -27 -48 11 -4 127 49 153 70 2 2 -16 4
-40 4 -29 -1 -58 -10 -86 -26z"/>
<path d="M1770 2440 c-63 -33 -119 -65 -124 -70 -25 -25 8 -14 109 36 113 56
148 67 125 39 -7 -8 -16 -15 -21 -15 -8 0 -184 -95 -198 -107 -2 -1 -2 -6 1
-9 3 -3 47 15 98 40 50 25 93 46 96 46 2 0 4 -34 4 -76 0 -55 3 -75 12 -72 11
4 15 15 32 91 4 15 13 27 21 27 8 0 15 9 15 19 0 25 18 37 26 17 5 -13 -5
-201 -21 -381 -1 -16 5 -44 13 -61 16 -35 20 -20 -48 -204 -17 -47 -34 -88
-39 -93 -4 -4 -16 -1 -27 7 -19 14 -19 15 5 40 25 27 45 126 22 112 -6 -4 -11
-24 -11 -44 0 -26 -8 -46 -25 -65 -14 -15 -29 -27 -32 -27 -3 0 -3 75 0 168 7
174 -6 208 -18 50 -7 -93 -13 -100 -53 -72 -19 13 -21 22 -17 57 4 31 3 37 -4
22 -20 -42 -12 -79 22 -100 28 -18 32 -27 35 -69 3 -47 -14 -88 -25 -58 -7 17
-23 15 -23 -4 0 -12 -5 -14 -17 -9 -17 8 -27 8 -73 3 -26 -3 -25 -4 8 -33 15
-13 39 -25 54 -25 45 0 55 -9 78 -71 16 -41 31 -64 49 -73 14 -8 25 -18 23
-23 -2 -4 4 -12 14 -18 10 -5 26 -19 37 -30 10 -11 15 -13 11 -5 -6 12 -4 13
6 3 8 -7 15 -30 16 -50 0 -21 5 -46 9 -57 5 -11 3 -27 -4 -38 -7 -11 -8 -17
-3 -14 7 4 10 -36 11 -108 0 -62 5 -126 11 -140 13 -36 13 -86 -2 -141 -11
-39 -9 -65 9 -178 13 -73 25 -159 29 -192 4 -33 8 -69 10 -80 1 -11 3 -29 4
-40 1 -11 7 2 13 29 7 27 18 51 26 54 11 4 12 -10 7 -74 -10 -109 -17 -145
-27 -138 -5 3 -9 -13 -9 -35 0 -21 5 -41 11 -43 6 -2 8 -14 4 -31 -4 -15 -10
-25 -14 -22 -4 2 -8 -1 -9 -8 0 -7 -3 -31 -6 -54 l-5 -43 254 0 255 0 0 1250
c0 688 -4 1250 -8 1250 -5 0 -9 -6 -9 -13 0 -8 -10 -39 -23 -71 -18 -43 -21
-59 -12 -65 21 -13 -20 -79 -66 -107 -52 -31 -57 -23 -50 70 5 61 8 66 62 122
45 46 53 60 39 63 -11 2 -29 -11 -48 -33 -16 -20 -33 -36 -37 -36 -5 0 -8 16
-8 35 l0 35 -83 0 -82 0 -19 -65 c-10 -36 -23 -68 -27 -71 -15 -9 -10 81 6
102 22 28 18 34 -19 34 -30 0 -36 -4 -46 -34 -6 -19 -18 -40 -26 -47 -13 -10
-12 -15 2 -36 13 -20 14 -42 9 -126 -6 -98 -45 -260 -66 -272 -12 -8 -22 40
-15 73 3 15 9 71 12 126 3 54 10 109 15 123 5 14 6 29 3 34 -3 6 -6 44 -5 85
l1 74 -58 0 c-50 0 -71 -8 -172 -60z m210 10 c0 -11 -7 -20 -15 -20 -15 0 -21
21 -8 33 12 13 23 7 23 -13z m226 -137 c-3 -16 -8 -67 -12 -115 -3 -49 -10
-88 -15 -88 -5 0 -9 12 -9 28 0 15 -5 43 -10 62 -8 29 -6 45 11 88 23 55 44
71 35 25z m204 -111 c0 -5 -6 -16 -13 -27 -16 -20 -33 -5 -23 20 6 16 36 21
36 7z m-268 -139 c9 -43 14 -100 11 -127 -2 -26 1 -54 6 -60 6 -7 8 -42 4 -84
-5 -62 -10 -76 -31 -92 -43 -34 -54 -27 -48 33 3 28 8 104 11 167 8 159 16
240 25 240 4 0 14 -35 22 -77z m201 41 c3 -3 1 -17 -4 -31 -12 -32 -2 -44 16
-20 7 10 19 15 29 11 16 -6 16 -8 0 -25 -19 -21 -11 -40 8 -21 14 14 28 16 28
4 0 -5 -14 -35 -32 -67 l-32 -59 -17 40 c-11 23 -18 66 -18 107 -1 61 5 78 22
61z m49 -255 c2 -22 0 -42 -3 -45 -10 -6 -16 5 -24 49 -6 29 -4 37 8 37 10 0
16 -13 19 -41z m-416 -114 c-11 -44 -25 -75 -35 -75 -5 0 -2 23 7 50 16 50 40
72 28 25z m340 -1 c-4 -9 -9 -15 -11 -12 -3 3 -3 13 1 22 4 9 9 15 11 12 3 -3
3 -13 -1 -22z m-301 -31 c-7 -39 -20 -61 -31 -51 -8 9 17 88 29 88 5 0 6 -16
2 -37z m55 -653 c0 -22 -4 -40 -10 -40 -11 0 -13 39 -4 64 10 26 14 19 14 -24z
m6 -302 c-3 -29 -8 -91 -11 -138 -7 -110 -12 -130 -32 -130 -14 0 -15 15 -8
147 4 80 9 152 12 160 3 7 14 13 25 13 19 0 20 -5 14 -52z"/>
<path d="M982 2283 c-24 -9 -41 -17 -38 -20 7 -7 74 16 81 28 4 5 5 8 3 8 -2
-1 -22 -8 -46 -16z"/>
<path d="M1163 2230 c6 -16 15 -30 19 -30 5 0 2 14 -7 30 -9 17 -17 30 -19 30
-3 0 1 -13 7 -30z"/>
<path d="M2015 2173 c-4 -21 -9 -47 -11 -58 -5 -19 -5 -19 10 -1 12 15 21 96
10 96 -2 0 -6 -17 -9 -37z"/>
<path d="M1082 2115 c0 -16 2 -22 5 -12 2 9 2 23 0 30 -3 6 -5 -1 -5 -18z"/>
<path d="M1387 2064 c-15 -8 -25 -20 -21 -25 4 -6 13 -4 25 7 13 12 19 13 19
4 0 -8 4 -9 13 -3 6 5 24 9 40 8 28 -1 35 9 16 21 -6 3 -15 1 -19 -6 -5 -9 -9
-9 -14 -1 -9 15 -25 13 -59 -5z"/>
<path d="M1105 2049 c-11 -16 3 -23 19 -10 10 9 16 9 21 1 4 -6 13 -9 21 -6 7
3 16 1 19 -4 4 -6 16 -10 28 -10 l22 1 -24 19 c-25 22 -95 28 -106 9z"/>
<path d="M1050 2041 c0 -5 5 -13 10 -16 6 -3 10 -2 10 4 0 5 -4 13 -10 16 -5
3 -10 2 -10 -4z"/>
<path d="M1080 1907 c0 -8 6 -20 14 -26 12 -10 13 -8 9 9 -7 25 -23 37 -23 17z"/>
<path d="M1140 1872 c0 -5 14 -21 30 -37 l31 -29 -33 -17 c-42 -22 -130 -108
-122 -120 3 -5 2 -9 -3 -8 -25 4 -34 -3 -29 -23 3 -13 3 -17 0 -10 -10 21 -21
14 -39 -24 -16 -34 -19 -36 -53 -29 -21 3 -42 13 -48 20 -9 12 -13 12 -26 -1
-8 -8 -26 -16 -39 -17 -13 0 -29 -7 -34 -15 -13 -17 -90 -18 -110 -2 -12 10
-19 10 -27 2 -7 -7 -19 -12 -27 -12 -8 0 -22 -7 -32 -16 -21 -19 -60 -13 -88
15 -14 14 -19 39 -23 105 -6 95 -28 145 -28 66 -1 -69 -10 -183 -16 -192 -9
-15 -23 -8 -30 15 -7 22 -12 89 -15 181 -1 66 -13 47 -32 -52 -9 -49 -25 -98
-39 -118 -23 -33 -48 -45 -48 -22 0 6 -7 4 -18 -6 -32 -28 -165 -55 -177 -35
-4 5 -15 9 -26 9 -10 0 -19 5 -19 10 0 6 -4 10 -10 10 -6 0 -10 -82 -10 -225
0 -223 0 -226 20 -215 11 6 20 7 20 3 0 -4 5 -1 10 7 7 11 10 11 10 2 0 -7 4
-11 9 -8 5 4 7 -3 4 -14 -5 -18 -2 -20 21 -16 14 2 28 1 31 -4 3 -5 16 -5 31
0 31 12 37 12 30 1 -4 -5 4 -7 16 -3 19 5 21 3 11 -9 -9 -11 -9 -33 -2 -89 9
-61 8 -80 -6 -117 -9 -23 -21 -43 -26 -43 -9 0 -10 5 -13 65 -1 17 -3 45 -4
63 -3 47 -18 31 -31 -31 -12 -55 -40 -137 -51 -150 -4 -4 -3 -31 2 -59 7 -35
6 -59 -1 -75 -14 -31 -14 -33 4 -33 19 0 19 5 -6 -66 -14 -40 -19 -72 -15
-101 4 -32 -3 -68 -29 -147 -19 -57 -35 -106 -35 -109 0 -3 9 -3 21 0 18 5 19
2 13 -23 -4 -16 -11 -37 -15 -46 -5 -9 -6 -23 -3 -31 3 -8 1 -18 -5 -22 -36
-21 9 -25 281 -23 226 2 292 6 294 16 1 7 0 8 -3 2 -7 -14 -25 -12 -20 3 2 6
10 12 18 12 8 0 19 4 26 8 7 5 17 -1 24 -14 10 -20 9 -21 -10 -16 -11 3 -21 1
-21 -4 0 -5 42 -9 93 -9 l93 0 11 33 c6 17 31 90 56 162 25 72 48 141 52 155
6 24 5 24 -10 -3 -9 -15 -20 -25 -25 -22 -15 9 -12 25 9 43 22 20 46 109 33
125 -17 22 -1 114 17 103 5 -3 12 2 16 11 3 10 1 19 -4 21 -13 4 -14 102 -2
152 4 20 5 44 1 55 -5 13 -9 -1 -14 -43 -10 -93 -10 -92 -69 -83 -5 0 -7 37
-6 80 2 44 0 83 -4 87 -4 4 -7 -30 -7 -75 0 -52 -4 -80 -10 -76 -5 3 -10 -1
-10 -9 0 -9 5 -16 10 -16 6 0 10 -7 10 -15 0 -8 9 -15 20 -15 22 0 23 -4 10
-35 -8 -19 -8 -19 -18 5 -10 23 -11 22 -11 -17 -1 -56 -16 -92 -42 -102 -21
-7 -21 -8 -3 -16 15 -7 12 -10 -21 -15 -22 -4 -48 -10 -57 -15 -11 -4 -18 -3
-18 5 0 6 5 8 12 4 7 -4 8 -3 4 5 -5 8 -18 5 -46 -10 -22 -12 -39 -25 -38 -28
2 -19 -4 -22 -17 -11 -9 7 -18 10 -22 7 -3 -4 -6 -62 -6 -129 1 -113 0 -121
-13 -93 -13 27 -14 27 -9 5 5 -31 -8 -55 -25 -45 -19 12 -43 77 -31 84 7 5 6
24 -4 61 -18 66 -19 90 -4 90 6 0 17 6 24 12 8 7 21 19 30 26 21 18 19 39 -4
47 -13 4 -28 27 -41 62 -23 62 -23 108 0 108 42 1 51 31 22 73 -20 29 -25 144
-8 170 5 8 4 18 -2 24 -8 8 -8 17 -1 29 5 10 7 30 3 44 -4 18 -2 25 9 25 8 0
18 7 21 16 7 19 26 9 25 -14 -1 -16 -2 -16 -6 0 -4 15 -6 15 -24 -3 -25 -25
-24 -32 4 -18 12 7 22 11 22 10 0 -1 8 1 18 4 9 4 29 5 42 3 16 -3 25 -1 25 7
0 12 21 25 41 25 5 0 9 -12 10 -27 1 -16 9 24 19 87 42 273 41 272 79 305 19
16 41 28 50 27 12 -3 13 -1 2 12 -19 22 -5 73 22 80 31 8 37 7 37 -5 0 -5 -5
-7 -11 -3 -8 4 -8 0 0 -15 7 -12 29 -32 51 -46 21 -13 44 -32 50 -42 8 -13 13
-14 16 -6 4 10 11 10 26 2 19 -10 20 -9 15 10 -3 11 -2 20 2 19 27 -3 33 2 20
18 -11 14 -10 15 11 12 18 -2 26 -11 31 -35 15 -74 52 -125 117 -157 21 -11
32 -24 32 -39 1 -12 7 -33 14 -46 l13 -24 7 28 c4 15 14 34 21 42 13 13 15 11
16 -14 1 -23 3 -20 11 14 6 28 17 47 31 54 39 20 56 50 44 76 -5 13 -13 23
-16 23 -6 0 -25 -27 -65 -93 -15 -24 -22 -28 -44 -22 -37 9 -60 35 -126 139
-43 70 -56 99 -56 130 l-1 41 -51 -55 c-55 -61 -56 -53 -7 57 28 62 132 183
146 169 4 -4 2 -38 -5 -77 -13 -76 -8 -104 15 -74 7 11 13 43 13 72 0 56 4 61
34 38 11 -8 25 -15 30 -15 6 0 -12 15 -39 34 -28 18 -67 52 -88 75 -20 22 -37
37 -37 33z m-181 -353 c-8 -4 -19 -3 -26 3 -20 16 -5 30 19 17 16 -9 18 -13 7
-20z m-739 -413 c0 -3 -4 -8 -10 -11 -5 -3 -10 -1 -10 4 0 6 5 11 10 11 6 0
10 -2 10 -4z m-20 -452 c0 -38 -15 -74 -30 -74 -13 0 -13 40 1 79 15 42 29 39
29 -5z m686 -76 c-2 -18 -4 -38 -5 -45 -1 -7 -8 -10 -18 -6 -15 5 -16 3 -5 -8
17 -19 15 -34 -4 -18 -11 9 -13 20 -8 38 4 14 6 36 6 49 -1 16 4 22 18 22 16
0 19 -6 16 -32z m-28 -106 c6 -18 -15 -14 -22 4 -4 10 -1 14 6 12 6 -2 14 -10
16 -16z m44 -16 c-5 -44 -20 -76 -36 -76 -9 0 -13 6 -11 13 2 6 9 31 15 55 12
47 37 53 32 8z m-131 10 c5 3 9 -2 9 -10 0 -9 -8 -16 -19 -16 -15 0 -18 5 -13
22 3 12 7 17 10 10 2 -7 8 -10 13 -6z m-73 -28 c5 -21 6 -21 13 -2 7 18 8 18
8 -1 1 -12 -4 -26 -10 -32 -9 -9 -7 -16 6 -29 17 -17 17 -17 11 4 -5 13 -3 22
3 22 6 0 11 7 11 16 0 9 5 14 11 12 6 -2 10 -7 9 -12 -3 -15 24 -26 32 -13 11
17 10 -61 -1 -81 -9 -17 -15 -46 -27 -134 -4 -31 -12 -48 -20 -48 -8 0 -14 -4
-14 -9 0 -5 -9 -11 -20 -14 -16 -4 -20 0 -20 18 0 30 -16 41 -23 15 -3 -10 0
-21 6 -23 8 -2 5 -10 -6 -22 -16 -16 -23 -16 -57 -5 -37 12 -46 30 -14 30 8 0
14 5 14 11 0 5 5 7 10 4 6 -3 10 -2 10 4 0 5 -8 15 -17 20 -17 10 -16 12 5 29
16 13 21 23 16 37 -5 12 -4 16 4 11 8 -4 10 -2 6 8 -3 8 2 28 11 45 14 28 20
31 50 28 29 -4 33 -2 24 9 -6 8 -15 11 -20 8 -5 -3 -9 2 -9 12 0 9 -8 23 -17
30 -11 8 -13 13 -5 14 6 0 12 7 12 16 0 11 -5 14 -17 10 -10 -4 -14 -4 -10 0
4 4 2 13 -4 21 -9 10 -7 13 11 13 14 0 24 -8 28 -22z m-504 -21 c-7 -19 -20
-22 -29 -7 -9 15 16 43 27 32 5 -5 6 -16 2 -25z m636 -99 c-6 -20 -15 -40 -20
-43 -9 -6 -8 19 6 90 7 37 7 38 16 15 6 -16 6 -38 -2 -62z m-170 53 c0 -5 -7
-14 -15 -21 -8 -7 -13 -15 -11 -19 3 -4 -4 -31 -13 -61 l-18 -55 -1 43 c-1 29
4 45 14 49 9 3 12 13 9 24 -4 11 -2 19 4 19 6 0 8 7 5 15 -4 9 0 15 10 15 9 0
16 -4 16 -9z m214 -72 c-6 -11 -24 -2 -24 11 0 5 7 7 15 4 8 -4 12 -10 9 -15z
m-14 -31 c0 -27 -34 -86 -46 -81 -17 6 -7 54 13 66 7 4 13 15 13 23 0 8 5 12
10 9 6 -3 10 -11 10 -17z m-70 -63 c0 -8 -4 -15 -10 -15 -5 0 -7 7 -4 15 4 8
8 15 10 15 2 0 4 -7 4 -15z m21 -42 c2 -32 -2 -57 -13 -85 -11 -29 -22 -35
-33 -18 -3 6 0 10 7 10 10 0 10 2 0 9 -12 7 -11 14 3 41 9 17 14 38 11 46 -3
8 1 14 9 14 8 0 16 -8 16 -17z m-57 -58 c-4 -8 -10 -12 -15 -9 -11 6 -2 24 11
24 5 0 7 -7 4 -15z m-157 -37 c-3 -8 -6 -5 -6 6 -1 11 2 17 5 13 3 -3 4 -12 1
-19z"/>
<path d="M682 308 c5 -15 28 -23 28 -10 0 5 -7 13 -16 16 -10 4 -14 1 -12 -6z"/>
<path d="M700 230 c0 -5 -6 -7 -13 -4 -9 3 -13 -2 -12 -16 2 -26 19 -43 47
-46 13 -2 17 0 11 2 -7 3 -13 12 -13 20 0 9 3 13 8 11 4 -3 7 6 7 19 0 16 -6
24 -17 24 -10 0 -18 -4 -18 -10z m5 -40 c3 -6 -1 -7 -9 -4 -18 7 -21 14 -7 14
6 0 13 -4 16 -10z"/>
<path d="M700 140 c0 -5 5 -10 10 -10 6 0 10 5 10 10 0 6 -4 10 -10 10 -5 0
-10 -4 -10 -10z"/>
<path d="M620 110 c20 -13 33 -13 25 0 -3 6 -14 10 -23 10 -15 0 -15 -2 -2
-10z"/>
<path d="M1457 1834 c-4 -4 -6 -30 -6 -58 2 -46 2 -48 8 -16 l6 35 19 -27 c52
-78 62 -237 21 -328 -23 -50 -23 -53 -4 -30 l21 25 -6 -50 -5 -50 24 70 c13
39 24 78 25 87 0 9 6 23 14 31 8 7 16 25 18 38 5 39 23 23 28 -25 3 -25 9 -48
12 -52 7 -6 2 43 -8 93 -6 30 -43 50 -56 32 -5 -9 -8 6 -6 41 3 71 -14 113
-55 131 -18 8 -34 24 -37 37 -3 13 -8 20 -13 16z m79 -392 c-11 -10 -15 4 -8
28 l7 25 3 -23 c2 -13 1 -26 -2 -30z"/>
<path d="M1456 1697 c3 -10 9 -15 12 -12 3 3 0 11 -7 18 -10 9 -11 8 -5 -6z"/>
<path d="M1676 1571 c-4 -7 -5 -15 -2 -18 9 -9 19 4 14 18 -4 11 -6 11 -12 0z"/>
<path d="M1710 1554 c0 -8 5 -12 10 -9 6 3 10 10 10 16 0 5 -4 9 -10 9 -5 0
-10 -7 -10 -16z"/>
<path d="M1344 1517 c4 -15 1 -37 -5 -49 -8 -16 -8 -30 1 -59 7 -22 17 -39 21
-39 9 0 5 23 -9 61 -8 20 -7 30 4 41 13 13 13 18 -2 44 l-16 29 6 -28z"/>
<path d="M1663 1517 c0 -7 -4 -21 -8 -32 -5 -15 0 -12 19 9 14 16 26 30 26 30
0 9 -37 1 -37 -7z"/>
<path d="M1285 1450 c3 -5 8 -10 11 -10 2 0 4 5 4 10 0 6 -5 10 -11 10 -5 0
-7 -4 -4 -10z"/>
<path d="M1580 1420 c12 -7 11 -12 -5 -32 l-19 -23 23 21 c23 21 22 44 -2 44
-7 0 -6 -4 3 -10z"/>
<path d="M929 1396 c26 -28 31 -31 31 -17 0 5 -12 17 -27 26 l-28 18 24 -27z"/>
<path d="M1103 1348 c33 -34 53 -48 55 -39 4 14 -30 46 -80 76 -18 10 -9 -3
25 -37z"/>
<path d="M1711 1370 c-19 -16 -39 -26 -44 -23 -6 3 -7 1 -3 -5 4 -7 3 -12 -2
-12 -6 0 -13 -7 -16 -16 -7 -18 90 55 98 74 7 16 6 16 -33 -18z"/>
<path d="M993 1337 c15 -13 27 -27 27 -33 0 -6 7 -19 15 -30 13 -17 14 -16 4
16 -11 34 -44 70 -64 69 -5 0 2 -10 18 -22z"/>
<path d="M1501 1310 c-1 -14 -4 -47 -5 -75 -3 -49 -3 -50 10 -19 16 38 56 66
91 62 14 -2 28 2 30 9 6 16 -45 10 -85 -11 l-31 -16 -4 38 c-2 24 -4 29 -6 12z"/>
<path d="M770 1286 c0 -2 7 -7 16 -10 8 -3 12 -2 9 4 -6 10 -25 14 -25 6z"/>
<path d="M1600 1245 c-11 -13 -10 -14 4 -9 9 3 16 10 16 15 0 13 -6 11 -20 -6z"/>
<path d="M1630 1239 c0 -5 5 -7 10 -4 6 3 10 8 10 11 0 2 -4 4 -10 4 -5 0 -10
-5 -10 -11z"/>
<path d="M1557 1223 c-3 -3 -3 -12 0 -21 4 -10 2 -13 -5 -8 -12 7 -44 -32 -36
-45 2 -4 0 -10 -6 -14 -13 -8 -13 -25 0 -25 6 0 10 6 10 14 0 8 16 31 35 52
19 20 35 38 35 39 0 6 -29 13 -33 8z"/>
<path d="M841 1199 c-1 -14 6 -34 14 -45 14 -18 14 -17 6 11 -17 57 -19 60
-20 34z"/>
<path d="M1046 1165 c3 -27 6 -61 6 -74 0 -18 2 -20 9 -10 10 16 4 75 -11 110
-8 19 -9 14 -4 -26z"/>
<path d="M1340 1190 c0 -5 -8 -10 -19 -10 -15 0 -19 -10 -25 -62 -15 -153 -61
-360 -91 -418 -67 -125 -195 -528 -195 -613 0 -29 3 -57 7 -60 3 -4 21 3 40
14 18 11 45 24 60 28 19 5 30 18 40 46 7 22 17 49 22 60 19 42 41 113 56 180
19 88 55 205 62 205 6 0 -5 -223 -12 -242 -3 -7 3 -30 14 -50 18 -36 19 -37
35 -19 20 22 37 199 19 188 -6 -4 -9 -16 -6 -28 5 -16 2 -20 -12 -18 -10 2
-20 10 -23 18 -3 8 -1 11 4 8 5 -3 10 27 11 66 1 62 6 109 14 152 1 6 5 -3 9
-20 6 -20 7 -11 4 30 -3 33 -7 152 -9 264 -2 112 -7 206 -10 209 -3 3 -5 -3
-6 -14 0 -18 -1 -18 -9 1 -15 35 -11 55 10 55 13 0 20 7 20 20 0 11 -2 20 -5
20 -3 0 -5 -4 -5 -10z m-27 -537 c-3 -40 -10 -73 -15 -73 -6 0 -8 14 -5 33 3
17 9 51 12 75 10 64 14 47 8 -35z"/>
<path d="M810 1171 c0 -7 5 -31 12 -52 13 -45 8 -55 -21 -39 -12 6 -21 8 -21
5 0 -9 22 -30 45 -42 19 -11 18 -12 -8 -18 -37 -10 -35 -28 3 -20 25 5 30 3
30 -12 1 -17 1 -17 11 0 9 15 13 16 27 5 12 -10 12 -6 -4 22 -10 19 -24 40
-31 48 -7 7 -15 29 -19 50 -7 41 -23 77 -24 53z"/>
<path d="M1812 1138 c-14 -17 -28 -96 -15 -83 9 9 34 95 28 95 -1 0 -7 -6 -13
-12z"/>
<path d="M1621 1074 c0 -11 3 -14 6 -6 3 7 2 16 -1 19 -3 4 -6 -2 -5 -13z"/>
<path d="M40 1070 c-13 -8 -12 -10 3 -10 9 0 17 5 17 10 0 12 -1 12 -20 0z"/>
<path d="M1536 1000 c3 -19 10 -42 16 -50 6 -10 7 -3 2 20 -3 19 -10 42 -16
50 -6 10 -7 3 -2 -20z"/>
<path d="M731 975 c-6 -25 -16 -43 -21 -40 -6 4 -10 -10 -9 -32 0 -21 3 -31 6
-23 40 105 51 140 44 140 -5 0 -14 -20 -20 -45z"/>
<path d="M1040 999 c-6 -11 -10 -27 -8 -35 2 -8 8 1 14 20 12 40 10 46 -6 15z"/>
<path d="M702 980 c0 -14 2 -19 5 -12 2 6 2 18 0 25 -3 6 -5 1 -5 -13z"/>
<path d="M852 940 c0 -14 2 -19 5 -12 2 6 2 18 0 25 -3 6 -5 1 -5 -13z"/>
<path d="M1007 929 c-4 -16 -3 -18 9 -8 7 6 11 15 8 20 -8 13 -11 11 -17 -12z"/>
<path d="M1562 920 c0 -8 4 -26 8 -40 6 -20 8 -21 8 -5 0 11 -3 29 -8 40 -5
12 -8 14 -8 5z"/>
<path d="M1773 873 c-1 -10 -6 -74 -11 -143 -8 -101 -7 -128 4 -139 20 -21 25
-10 14 29 -6 19 -8 41 -6 50 10 33 17 220 9 220 -5 0 -9 -8 -10 -17z"/>
<path d="M691 844 c0 -11 3 -14 6 -6 3 7 2 16 -1 19 -3 4 -6 -2 -5 -13z"/>
<path d="M680 804 c0 -10 -11 -45 -24 -78 -29 -75 -42 -139 -23 -116 9 12 22
14 49 10 30 -5 35 -4 30 9 -9 24 -35 51 -49 51 -7 0 -13 5 -13 11 0 6 8 8 18
5 22 -7 51 32 32 44 -8 5 -10 18 -5 38 3 18 2 33 -4 37 -6 3 -11 -1 -11 -11z"/>
<path d="M723 776 c13 -27 22 -26 30 4 4 16 0 20 -18 20 -21 0 -22 -2 -12 -24z"/>
<path d="M981 784 c0 -11 3 -14 6 -6 3 7 2 16 -1 19 -3 4 -6 -2 -5 -13z"/>
<path d="M971 744 c0 -11 3 -14 6 -6 3 7 2 16 -1 19 -3 4 -6 -2 -5 -13z"/>
<path d="M1586 724 c-5 -14 -4 -15 9 -4 17 14 19 20 6 20 -5 0 -12 -7 -15 -16z"/>
<path d="M961 704 c0 -11 3 -14 6 -6 3 7 2 16 -1 19 -3 4 -6 -2 -5 -13z"/>
<path d="M705 700 c3 -5 8 -10 11 -10 2 0 4 5 4 10 0 6 -5 10 -11 10 -5 0 -7
-4 -4 -10z"/>
<path d="M673 603 c-15 -5 -17 -23 -4 -23 5 0 11 7 15 15 3 8 4 15 3 14 -1 0
-8 -3 -14 -6z"/>
<path d="M611 564 c0 -11 3 -14 6 -6 3 7 2 16 -1 19 -3 4 -6 -2 -5 -13z"/>
<path d="M1691 554 c0 -11 3 -14 6 -6 3 7 2 16 -1 19 -3 4 -6 -2 -5 -13z"/>
<path d="M1763 554 c-3 -8 -1 -25 5 -37 10 -20 11 -18 11 16 1 39 -5 48 -16
21z"/>
<path d="M942 505 c0 -16 2 -22 5 -12 2 9 2 23 0 30 -3 6 -5 -1 -5 -18z"/>
<path d="M1631 474 c0 -11 3 -14 6 -6 3 7 2 16 -1 19 -3 4 -6 -2 -5 -13z"/>
<path d="M1616 433 c-6 -14 -5 -15 5 -6 7 7 10 15 7 18 -3 3 -9 -2 -12 -12z"/>
<path d="M1796 400 c8 -43 14 -51 14 -19 0 13 -5 31 -10 39 -7 11 -8 5 -4 -20z"/>
<path d="M1639 306 c-3 -4 -3 -24 1 -46 12 -68 12 -210 0 -225 -7 -8 -10 -20
-7 -27 4 -9 6 -8 6 3 1 25 47 42 64 24 8 -8 17 -11 21 -8 3 4 6 1 6 -5 0 -5
-6 -13 -12 -16 -7 -3 -4 -5 7 -3 15 2 21 11 23 35 2 17 -1 32 -7 32 -6 0 -8
-7 -5 -15 8 -19 -5 -19 -30 0 -10 8 -22 12 -26 10 -11 -7 -17 28 -20 100 -3
77 -13 149 -21 141z"/>
<path d="M1211 95 c1 -19 18 -51 18 -35 0 8 -4 22 -9 30 -5 8 -9 11 -9 5z"/>
</g>
</svg>
